<svg xmlns="http://www.w3.org/2000/svg" xmlns:xlink="http://www.w3.org/1999/xlink" id="Layer_1" x="0px" y="0px" viewBox="0 0 554.9 242.7" style="enable-background:new 0 0 554.9 242.7;" xml:space="preserve"><style type="text/css">	.st0{fill:#60269E;}	.st1{fill:#E50695;}</style><g>	<g>		<g>			<g>				<path class="st0" d="M31.4,199.9c2.1,0.6,3.9,1.3,5.4,2.3l-3.2,6.7c-1.5-0.8-3.1-1.5-4.9-2.2c-1.8-0.6-3.2-0.9-4.3-0.9     c-1.1,0-1.6,0.4-1.6,1.1c0,0.6,0.3,1,1,1.3c0.7,0.3,1.8,0.7,3.3,1c1.9,0.5,3.5,1,4.8,1.6s2.4,1.4,3.3,2.5     c0.9,1.1,1.4,2.6,1.4,4.5c0,1.9-0.5,3.5-1.5,4.8s-2.3,2.2-4,2.8c-1.7,0.6-3.6,0.9-5.7,0.9c-2.3,0-4.7-0.4-7.1-1.1     c-2.4-0.7-4.5-1.8-6.2-3.1l3.3-6.6c1.3,1.1,3,2.1,5.1,2.9c2,0.8,3.7,1.2,5.1,1.2c1.4,0,2.1-0.5,2.1-1.4c0-0.6-0.3-1-1-1.3     c-0.7-0.3-1.8-0.7-3.4-1c-1.9-0.5-3.5-0.9-4.7-1.4c-1.3-0.5-2.4-1.3-3.3-2.4c-0.9-1.1-1.4-2.5-1.4-4.3c0-1.7,0.5-3.3,1.4-4.6     c0.9-1.3,2.3-2.3,4-3c1.7-0.7,3.7-1.1,6-1.1C27.3,199.1,29.4,199.4,31.4,199.9z"></path>				<path class="st0" d="M45.7,196.3c0.8,0.8,1.2,1.8,1.2,3.1c0,1.3-0.4,2.3-1.2,3.1c-0.8,0.8-1.9,1.2-3.1,1.2     c-1.3,0-2.3-0.4-3.1-1.2c-0.8-0.8-1.2-1.9-1.2-3.1c0-1.3,0.4-2.3,1.2-3.1c0.8-0.8,1.8-1.2,3.1-1.2     C43.9,195,44.9,195.5,45.7,196.3z M38.3,226.1v-20.8h8.5v20.8H38.3z"></path>				<path class="st0" d="M82.3,205.9c1.1,0.7,2,1.6,2.6,2.8c0.6,1.2,0.9,2.6,0.9,4.1v13.3h-8.6v-10.8c0-0.9-0.2-1.6-0.6-2.1     c-0.4-0.5-1-0.8-1.7-0.8c-0.8,0-1.4,0.3-1.9,0.9c-0.5,0.6-0.7,1.4-0.7,2.4v10.3h-8.6v-10.8c0-0.9-0.2-1.6-0.6-2.1     c-0.4-0.5-1-0.8-1.7-0.8c-0.8,0-1.4,0.3-1.9,0.9c-0.5,0.6-0.7,1.4-0.7,2.4v10.3h-8.5v-20.8h8.5v2.9c0.7-1.1,1.6-1.9,2.6-2.4     c1.1-0.6,2.2-0.9,3.6-0.9c1.6,0,2.9,0.4,4.1,1.2c1.2,0.8,2,1.9,2.6,3.3c0.7-1.4,1.6-2.5,2.7-3.3c1.2-0.8,2.5-1.2,4-1.2     C80,204.9,81.2,205.2,82.3,205.9z"></path>				<path class="st0" d="M107.7,206.3c1.4,0.9,2.6,2.2,3.3,3.8c0.8,1.6,1.2,3.5,1.2,5.7c0,2.1-0.4,4-1.1,5.6     c-0.8,1.6-1.8,2.8-3.2,3.7c-1.4,0.9-3,1.3-4.9,1.3c-1.1,0-2.1-0.2-3.1-0.6s-1.8-1-2.4-1.8v9.5h-8.6v-28.1h8.6v2.1     c1.4-1.6,3.1-2.4,5.3-2.4C104.6,205,106.3,205.4,107.7,206.3z M102.8,218.5c0.6-0.7,0.9-1.7,0.9-2.9c0-1.2-0.3-2.2-0.9-2.9     c-0.6-0.7-1.3-1.1-2.3-1.1c-0.9,0-1.7,0.4-2.2,1.1c-0.6,0.7-0.8,1.7-0.8,2.9c0,1.2,0.3,2.2,0.8,2.9c0.6,0.7,1.3,1.1,2.2,1.1     C101.5,219.6,102.2,219.3,102.8,218.5z"></path>				<path class="st0" d="M114.4,226.1v-28.2h8.6v28.2H114.4z"></path>				<path class="st0" d="M142,206.4c1.7,0.9,2.9,2.3,3.8,4c0.9,1.7,1.3,3.8,1.3,6.1c0,0.5,0,0.8,0,1.1h-13.5     c0.3,0.8,0.7,1.4,1.3,1.8c0.6,0.4,1.3,0.6,2.1,0.6c1.5,0,2.9-0.6,4.2-1.9l4.5,4.4c-1.1,1.2-2.5,2.2-4,2.8c-1.6,0.6-3.4,1-5.4,1     c-2.3,0-4.3-0.4-6.1-1.3c-1.7-0.9-3-2.1-3.9-3.7c-0.9-1.6-1.3-3.5-1.3-5.6c0-2.2,0.5-4.1,1.4-5.7c0.9-1.6,2.2-2.9,3.9-3.8     c1.7-0.9,3.6-1.3,5.8-1.3C138.3,205,140.3,205.5,142,206.4z M137.9,211.5c-0.5-0.6-1.1-0.8-1.8-0.8c-0.7,0-1.3,0.3-1.8,0.8     c-0.5,0.5-0.8,1.2-1,2.2h5.2C138.6,212.8,138.4,212.1,137.9,211.5z"></path>				<path class="st0" d="M175.1,205.9c1.1,0.7,2,1.6,2.6,2.8c0.6,1.2,0.9,2.6,0.9,4.1v13.3h-8.6v-10.8c0-0.9-0.2-1.6-0.7-2.1     c-0.5-0.5-1-0.8-1.8-0.8c-0.8,0-1.5,0.3-2,0.9c-0.5,0.6-0.7,1.4-0.7,2.4v10.3h-8.6v-28.2h8.6v10.4c0.7-1.1,1.6-1.9,2.7-2.5     c1.1-0.6,2.3-0.9,3.6-0.9C172.7,204.9,174,205.2,175.1,205.9z"></path>				<path class="st0" d="M198.7,206.9c1.7,1.4,2.5,3.2,2.5,5.7v13.4h-8.4v-2.2c-1.3,1.7-3.2,2.6-5.8,2.6c-2.2,0-3.9-0.6-5.1-1.8     c-1.2-1.2-1.8-2.8-1.8-4.8c0-2.1,0.7-3.6,2-4.7c1.4-1.1,3.4-1.6,6-1.7h4.7c0-0.7-0.3-1.3-0.9-1.7c-0.5-0.4-1.3-0.6-2.4-0.6     c-0.8,0-1.8,0.1-2.9,0.3c-1.1,0.2-2.3,0.6-3.4,1l-1.9-5.7c1.8-0.7,3.5-1.2,5.3-1.5c1.8-0.3,3.4-0.5,5-0.5     C194.7,204.9,197,205.6,198.7,206.9z M191.6,220.6c0.5-0.3,0.9-0.7,1.3-1.2v-1.9h-3c-1.2,0-1.8,0.6-1.8,1.7c0,0.6,0.2,1,0.5,1.4     c0.3,0.3,0.8,0.5,1.4,0.5C190.5,221,191,220.9,191.6,220.6z"></path>				<path class="st0" d="M211.5,196.3c0.8,0.8,1.2,1.8,1.2,3.1c0,1.3-0.4,2.3-1.2,3.1c-0.8,0.8-1.9,1.2-3.1,1.2     c-1.3,0-2.3-0.4-3.1-1.2c-0.8-0.8-1.2-1.9-1.2-3.1c0-1.3,0.4-2.3,1.2-3.1c0.8-0.8,1.8-1.2,3.1-1.2     C209.6,195,210.7,195.5,211.5,196.3z M204.1,226.1v-20.8h8.5v20.8H204.1z"></path>				<path class="st0" d="M222.1,216.3H217l-1.5-9.9v-7h8.1v7L222.1,216.3z M222.2,219.7c0.7,0.7,1.1,1.6,1.1,2.8     c0,1.2-0.4,2.1-1.1,2.8c-0.7,0.7-1.7,1.1-2.8,1.1c-1.1,0-2.1-0.4-2.8-1.1c-0.7-0.7-1.1-1.7-1.1-2.8c0-1.1,0.4-2.1,1.1-2.8     c0.7-0.7,1.7-1.1,2.8-1.1C220.5,218.6,221.5,219,222.2,219.7z"></path>			</g>		</g>		<g>			<g>				<path class="st0" d="M84.3,148.3v1.4H59.6c-1.9-2-3.2-4.2-5-8.3L50,130.9c-2.4-5.6-5.9-8.1-10.9-8.1h-4.4v26.8H11.8V67.9h32.1     c22.3,0,35.1,9.1,35.1,24.5c0,10.8-7.2,18.4-16.8,22.1v0.5c4.4,1.8,7,4.4,10.1,11.4l4.7,10.6C79.2,142.1,81,144.7,84.3,148.3z      M42.3,104.7c9.7,0,13.5-4.1,13.5-9c0-4.9-3.9-9-13.5-9h-7.8v17.9H42.3z"></path>				<path class="st0" d="M146.8,148.5v1.1h-18.7c-0.9-0.9-1.6-1.8-2-2.8c-6,2.5-12.7,4-19.1,4c-14.3,0-23.6-7.8-23.6-18.4     c0-12.6,11.8-20.3,26.8-20.3c4.3,0,8.2,0.5,11.4,1c-0.1-5.6-3.9-9-13.4-9c-4.9,0-10.6,0.8-16.8,2.3l-4.4-15.2     c8.3-2.4,16.2-4,24.6-4c13.1,0,20.1,3.2,24.5,7.6c4.5,4.5,7.4,12,7.4,20.4v14.3C143.4,136.5,144.7,143.7,146.8,148.5z      M111.6,136.1c2.7,0,6.5-0.8,9.9-2.4v-8.3c-3.2-0.7-6.1-0.9-8.6-0.9c-5.5,0-9.1,2.4-9.1,5.9     C103.8,134.2,106.6,136.1,111.6,136.1z"></path>				<path class="st0" d="M218.8,119c0,21.4-14.2,31.8-28.3,31.8c-5.9,0-10.4-1.1-14.6-3.5v24h-22.7V88.3h21.9v3.3     c4.1-3,9.3-4.4,15.3-4.4C204.2,87.2,218.8,97.6,218.8,119z M195.6,119c0-7.7-5-13.3-12.7-13.3c-2.8,0-5,0.3-7.2,1V131     c2.4,0.9,4.2,1.2,7.5,1.2C191,132.3,195.6,126.7,195.6,119z"></path>				<path class="st0" d="M248.5,65.6v16.1h-22.7V65.6H248.5z M248.5,88.3v61.3h-22.7V88.3H248.5z"></path>				<path class="st1" d="M327,95.9c0,17.5-14.3,28.2-35.4,28.2h-9.1v25.6h-22.9V67.9h31.7C312.2,67.9,327,78.4,327,95.9z      M303.7,96.1c0-5.2-4-9.4-14-9.4h-7.5v18.5h7.3C299.5,105.2,303.7,101.4,303.7,96.1z"></path>				<path class="st1" d="M391.3,148.5v1.1h-18.7c-0.9-0.9-1.6-1.8-2-2.8c-6,2.5-12.7,4-19.1,4c-14.3,0-23.6-7.8-23.6-18.4     c0-12.6,11.8-20.3,26.8-20.3c4.3,0,8.2,0.5,11.4,1c-0.1-5.6-3.9-9-13.4-9c-4.9,0-10.6,0.8-16.8,2.3l-4.4-15.2     c8.3-2.4,16.2-4,24.6-4c13.1,0,20.1,3.2,24.5,7.6c4.5,4.5,7.4,12,7.4,20.4v14.3C387.9,136.5,389.2,143.7,391.3,148.5z      M356.1,136.1c2.7,0,6.5-0.8,9.9-2.4v-8.3c-3.2-0.7-6.1-0.9-8.6-0.9c-5.5,0-9.1,2.4-9.1,5.9     C348.2,134.2,351.1,136.1,356.1,136.1z"></path>				<path class="st1" d="M412.6,88.3l13.2,39.2l3.6-13.2l7.3-26h23.6l-25.8,64.4c-6.1,14-12.4,19.6-27.6,19.6     c-4.7,0-12.9-1-17.1-2.3l5-16.8c3.5,1,8.2,1.6,11.1,1.6c4.7,0,6.5-1.2,7.8-4.2l0.5-1l-25.9-61.3H412.6z"></path>			</g>			<path class="st0" d="M506.3,10.5c-24,0-43.5,19.5-43.5,43.5c0,24,19.5,43.5,43.5,43.5c24,0,43.5-19.5,43.5-43.5    C549.8,29.9,530.3,10.5,506.3,10.5z M526.3,61.3c-0.7,0.7-1.6,1-2.5,1c-0.9,0-1.8-0.3-2.5-1c-1.4-1.4-1.4-3.6,0-4.9l4.4-4.4    c-5.9,0-15.3,0-16.8,0c-0.7,0-0.9,0.2-1.1,0.8c-2.4,7.2-8,11.3-15.6,11.4c-0.9,0-1.9,0-3.2,0c0.5,0.5,0.8,0.8,1.1,1.1    c5.7,5.7,11.4,11.4,17.1,17.1c1.1,1.1,1.5,2.3,1.1,3.7c-0.4,1.4-1.4,2.2-2.9,2.4c-1.3,0.2-2.2-0.4-3.1-1.2    c-5.7-5.6-11.4-11.2-17.1-16.8c-2.3-2.3-4.6-4.6-7-6.9c-1.2-1.2-1.7-2.5-1.1-4.1c0.7-1.6,2-2.2,3.7-2.1c3.8,0,7.6,0,11.4,0    c3.7,0,6.4-1.7,8.3-5.2c-2.8,0-5.4,0-8,0c-4.3,0-8.7,0-13,0c-0.7,0-1.4-0.1-2.1-0.3c-1.5-0.5-2.3-2.2-2-3.7    c0.3-1.7,1.7-2.8,3.6-2.8c6.7,0,13.3,0,20,0c0.4,0,0.9,0,1.4,0c-0.8-2.9-4.3-5.2-7.7-5.2c-4.5,0-9,0-13.5,0    c-2.5,0-4.1-2.2-3.4-4.5c0.5-1.5,1.8-2.4,3.8-2.4c5.2,0,10.4,0,15.6,0c6.7,0,13.3,0,20,0c1.9,0,3.2,1.1,3.5,2.7    c0.3,1.6-0.6,3.2-2,3.7c-0.6,0.2-1.2,0.3-1.8,0.3c-2.4,0-4.9,0-7.3,0c-0.4,0-0.9,0-1.4,0c0.7,1.7,1.3,3.2,1.9,4.8    c0.1,0.2,0.7,0.4,1,0.4c1.5,0,11.2,0,17,0l-4.9-4.9c-1.4-1.4-1.4-3.6,0-4.9c1.4-1.4,3.6-1.4,4.9,0l13,13L526.3,61.3z"></path>		</g>	</g></g></svg>